<?xml version="1.0" standalone="no"?>
<!DOCTYPE svg PUBLIC "-//W3C//DTD SVG 20010904//EN"
 "http://www.w3.org/TR/2001/REC-SVG-20010904/DTD/svg10.dtd">
<svg version="1.0" xmlns="http://www.w3.org/2000/svg"
 width="500.000000pt" height="500.000000pt" viewBox="0 0 500.000000 500.000000"
 preserveAspectRatio="xMidYMid meet">
<metadata>
Created by potrace 1.11, written by Peter Selinger 2001-2013
</metadata>
<g transform="translate(0.000000,500.000000) scale(0.100000,-0.100000)"
fill="#000000" stroke="none">
<path d="M1323 3956 c-220 -42 -418 -148 -560 -300 -214 -229 -231 -521 -45
-781 20 -27 134 -149 252 -270 296 -301 375 -412 432 -610 30 -105 32 -333 4
-434 -41 -149 -116 -250 -225 -304 -125 -61 -310 -47 -420 34 -101 73 -147
186 -139 342 12 224 131 335 411 382 35 6 38 8 33 31 -30 117 -175 185 -359
169 -252 -21 -436 -165 -503 -390 -24 -80 -24 -256 -1 -344 79 -296 363 -451
829 -451 288 0 505 58 694 188 113 76 224 211 281 340 50 114 67 213 66 387 0
138 -4 173 -26 256 -60 228 -166 374 -462 636 -249 220 -337 339 -371 503 -30
143 -2 263 81 346 72 72 141 98 266 98 87 1 101 -2 155 -29 72 -37 119 -106
129 -190 14 -107 -37 -246 -121 -329 l-48 -48 31 -29 c56 -49 146 -62 243 -33
73 22 157 105 191 189 20 52 23 77 24 190 0 125 -1 133 -31 195 -56 119 -164
200 -321 241 -102 27 -381 36 -490 15z"/>
<path d="M3416 3949 c-419 -73 -843 -344 -1017 -646 -70 -124 -91 -192 -97
-320 -4 -94 -1 -122 16 -180 36 -117 109 -181 238 -208 74 -16 154 -20 154 -7
0 4 -9 32 -21 62 -45 117 -35 344 22 515 42 125 98 216 193 311 89 88 182 149
310 200 l81 33 3 -1329 2 -1330 284 0 284 0 10 27 c5 16 236 633 512 1373 276
740 515 1380 531 1423 l28 77 -138 0 -138 0 -404 -1179 -404 -1179 -7 92 c-3
50 -11 501 -17 1001 -6 501 -14 994 -17 1098 l-7 187 -146 -1 c-96 0 -183 -7
-255 -20z"/>
</g>
</svg>
