<?xml version="1.0" encoding="utf-8"?>
<!-- Generator: Adobe Illustrator 15.0.0, SVG Export Plug-In . SVG Version: 6.00 Build 0)  -->
<!DOCTYPE svg PUBLIC "-//W3C//DTD SVG 1.1//EN" "http://www.w3.org/Graphics/SVG/1.1/DTD/svg11.dtd">
<svg version="1.1" id="Layer_1" xmlns="http://www.w3.org/2000/svg" xmlns:xlink="http://www.w3.org/1999/xlink" x="0px" y="0px"
	 width="800px" height="300px" viewBox="0 0 800 300" enable-background="new 0 0 800 300" xml:space="preserve">
<g>
	<g>
		<path fill="#1D1D1B" d="M118.814,68.788c-3.601,0-7.201-1.35-10.127-4.726c6.076-3.601,10.127-11.927,10.127-19.353
			c0-7.877-4.501-15.078-16.428-15.078c-12.377,0-20.929,7.201-20.929,19.578c0,35.331,50.634,37.356,50.634,87.539
			c0,31.729-23.404,52.208-59.635,52.208c-18.003,0-49.733-3.825-49.733-36.23c0-21.153,15.753-32.405,33.08-32.405
			c10.127,0,16.428,3.376,18.229,11.477c-18.229,1.575-26.329,9.227-26.329,24.754c0,15.078,11.701,21.604,22.278,21.604
			c17.778,0,24.754-15.527,24.754-32.18c0-42.307-48.607-51.533-48.607-85.063c0-23.629,26.779-41.856,53.559-41.856
			c11.927,0,37.806,1.8,37.806,27.004C137.492,58.887,130.517,68.788,118.814,68.788z"/>
		<path fill="#1D1D1B" d="M210.181,91.292c0-5.4-3.375-7.651-8.326-7.651c-18.903,0-31.055,36.681-31.055,60.984
			c0,13.277,2.7,24.079,16.428,24.079c15.978,0,28.805-9.452,39.156-21.153h7.651c-10.802,12.151-22.954,40.281-62.786,40.281
			c-18.678,0-30.829-10.352-30.829-36.906c0-32.854,14.177-76.286,57.834-76.286c12.152,0,24.754,3.15,24.754,15.527
			c0,2.476-0.225,4.501-1.125,7.426c-1.125-0.675-2.926-1.35-5.626-1.35c-2.025,0-4.275,0.45-7.201,1.35
			C209.73,95.118,210.181,93.093,210.181,91.292z"/>
		<path fill="#1D1D1B" d="M309.195,106.145c1.351,1.351,3.376,2.025,6.526,2.025c10.576,0,15.303-7.651,23.629-11.027l0.9,4.727
			c-6.977,8.776-18.679,16.202-31.73,19.803c-4.275,45.231-28.805,67.511-51.309,67.511c-24.079,0-34.431-10.127-34.431-36.906
			c0-55.358,28.13-79.212,59.185-79.212C303.345,73.064,308.745,89.717,309.195,106.145z M291.867,123.922
			c-6.525,0-9.451-4.726-9.451-10.126c0-6.526,3.826-13.502,9.901-15.753c-0.675-7.426-3.15-11.702-9.451-11.702
			c-21.153,0-30.155,45.907-30.155,63.91c0,13.502,6.302,17.103,15.078,17.103C281.516,167.354,289.167,145.75,291.867,123.922z"/>
		<path fill="#1D1D1B" d="M425.317,75.314l-16.203,76.512c-0.45,2.476-0.899,4.951-0.899,6.977c0,4.95,2.25,8.551,11.251,8.551
			c9.002,0,20.704-12.602,29.705-19.803h7.651c-10.352,10.352-35.78,40.281-53.334,40.281c-15.303,0-25.654-5.851-27.68-18.903
			c-10.577,9.902-22.729,18.903-32.405,18.903c-17.328,0-28.13-7.651-28.13-24.529c0-3.375,0.45-7.201,1.351-11.477l16.202-76.512
			h32.405l-16.202,76.512c-0.45,2.476-0.9,4.951-0.9,6.977c0,4.95,2.25,8.551,11.252,8.551c4.726,0,10.352-3.601,15.978-8.102
			c0.225-2.25,0.675-4.726,1.351-7.426l16.202-76.512H425.317z"/>
		<path fill="#1D1D1B" d="M492.604,39.759c0,0-3.375,15.303-7.651,35.556h13.502l-1.8,9.002h-13.502
			c-15.527,71.11-15.303,73.36-15.303,74.486c0,5.176,2.25,8.551,11.252,8.551c9.001,0,20.703-12.602,29.705-19.803h7.651
			c-10.353,10.352-35.781,40.281-53.334,40.281c-17.328,0-27.904-7.651-27.904-24.529c0-11.927,11.701-59.634,15.527-78.986h-7.427
			l1.801-9.002h7.426l6.751-31.055L492.604,39.759z"/>
		<path fill="#1D1D1B" d="M547.963,75.314l-16.202,76.512c-0.45,2.476-0.9,4.951-0.9,6.977c0,4.95,2.25,8.551,11.252,8.551
			c9.001,0,20.703-12.602,29.704-19.803h7.651c-10.352,10.352-35.78,40.281-53.333,40.281c-17.328,0-28.13-7.651-28.13-24.529
			c0-3.375,0.45-7.201,1.35-11.477l16.203-76.512H547.963z M537.611,27.606c9.901,0,18.003,8.102,18.003,18.003
			c0,9.902-8.102,17.778-18.003,17.778s-17.778-7.876-17.778-17.778C519.833,35.708,527.71,27.606,537.611,27.606z"/>
		<path fill="#1D1D1B" d="M651.031,151.826c-0.675,2.476-1.125,4.951-1.125,7.201c0,4.951,2.476,8.326,11.252,8.326
			c9.001,0,12.377-6.976,21.378-14.177h7.651c-10.352,10.352-27.454,34.655-45.007,34.655s-27.904-7.651-27.904-24.529
			c0-3.601,0.449-7.201,1.35-11.477l8.552-40.506c0.45-2.025,0.675-4.051,0.675-5.851c0-8.102-4.275-13.277-10.352-13.277
			c-5.4,0-9.451,1.575-14.178,4.726l-19.128,90.914H551.79l23.854-112.518h32.405l-2.701,12.152
			c9.227-6.751,19.578-12.152,29.48-12.152c12.151,0,25.879,13.052,25.879,28.13c0,1.8,0,3.601-0.45,5.4L651.031,151.826z"/>
		<path fill="#1D1D1B" d="M668.809,160.603c0-31.055,11.927-85.063,55.584-85.063c8.102,0,14.628,4.727,18.003,10.577l2.25-10.802
			h32.631l-27.454,130.521c-6.752,32.181-26.104,38.256-40.957,38.256c-13.728,0-26.555-9.676-26.555-24.304
			c0-20.479,16.653-23.854,37.581-27.904l2.701-12.152c-6.752,5.401-15.528,9.452-25.88,9.452
			C675.109,189.183,668.809,173.88,668.809,160.603z M703.689,224.063c4.726,0,10.352-4.275,13.277-17.553l1.575-7.426
			c-14.178,2.476-23.854,5.4-23.854,17.553C694.688,219.787,698.738,224.063,703.689,224.063z M696.488,156.327
			c0,10.802,6.526,14.177,16.428,14.177c4.275,0,8.776-3.15,13.052-7.426l13.952-65.26c-3.601-6.751-9.227-9.677-13.052-9.677
			C705.04,88.142,696.488,136.974,696.488,156.327z"/>
	</g>
	<g>
		<path fill="#1D1D1B" d="M521.162,255.557c3.865,0,10.488-4.571,13.245-10.405h3.549c-4.494,8.122-12.063,16.083-22.234,16.083
			c-7.571,0-11.666-5.754-11.666-12.536c0-10.014,4.254-27.595,18.606-27.595c6.466,0,10.089,2.681,10.089,8.198
			c0,9.624-10.327,15.142-17.818,16.087c-0.154,1.259-0.235,2.444-0.235,3.389C514.697,253.981,518.089,255.557,521.162,255.557z
			 M525.262,225.281c-4.413,0-8.042,8.91-9.698,16.321c7.254-0.077,12.381-6.308,12.458-11.905
			C528.021,228.041,527.627,225.281,525.262,225.281z"/>
		<path fill="#1D1D1B" d="M570.358,221.813l-7.408,34.928c5.042-2.602,9.538-6.15,12.14-12.063l-0.315,6.228
			c-1.027,5.125-6.546,8.042-12.772,10.329l-1.34,6.31c-2.369,11.271-8.99,13.4-14.191,13.4c-4.81,0-8.831-2.525-8.831-7.647
			c0-6.465,5.756-9.066,12.852-11.667l0.788-3.551c-2.366,2.13-5.439,3.783-9.067,3.783c-7.566,0-9.773-6.382-9.773-11.034
			c0-10.879,4.176-28.937,19.474-28.937c2.836,0,5.123,1.576,6.227,3.705l0.865-3.784H570.358z M544.659,274.795
			c1.574,0,3.623-2.365,4.571-7.018l0.473-2.364c-4.494,1.736-7.729,3.705-7.729,6.781
			C541.974,273.297,542.923,274.795,544.659,274.795z M542.134,249.327c0,3.785,2.285,4.97,5.756,4.97
			c1.576,0,3.23-1.185,4.73-2.759l4.651-21.841c-1.261-2.364-3.154-3.393-4.496-3.393
			C545.13,226.305,542.134,242.548,542.134,249.327z"/>
		<path fill="#1D1D1B" d="M604.734,248.619c-0.236,0.946-0.394,1.813-0.394,2.524c0,1.731,0.864,2.915,3.941,2.915
			c3.151,0,7.254-4.414,10.408-6.937h2.68c-3.628,3.626-12.536,14.112-18.685,14.112c-6.152,0-9.777-2.679-9.777-8.594
			c0-1.262,0.157-2.522,0.474-4.021l2.997-14.189c0.154-0.712,0.237-1.421,0.237-2.053c0-2.838-1.501-4.65-3.629-4.65
			c-1.894,0-3.312,0.553-4.889,1.653l-6.777,31.854h-11.358l11.434-53.613l11.669-1.577l-4.259,19.947
			c3.234-2.281,6.861-4.179,10.249-4.179c4.26,0,9.068,4.574,9.068,9.857c0,0.632,0,1.26-0.158,1.89L604.734,248.619z"/>
		<path fill="#1D1D1B" d="M629.336,255.557c3.859,0,10.483-4.571,13.242-10.405h3.551c-4.496,8.122-12.064,16.083-22.233,16.083
			c-7.567,0-11.669-5.754-11.669-12.536c0-10.014,4.258-27.595,18.607-27.595c6.465,0,10.091,2.681,10.091,8.198
			c0,9.624-10.329,15.142-17.82,16.087c-0.155,1.259-0.236,2.444-0.236,3.389C622.868,253.981,626.259,255.557,629.336,255.557z
			 M633.433,225.281c-4.413,0-8.042,8.91-9.698,16.321c7.255-0.077,12.379-6.308,12.458-11.905
			C636.192,228.041,635.798,225.281,633.433,225.281z"/>
		<path fill="#1D1D1B" d="M652.988,248.619c-0.238,0.946-0.395,1.813-0.395,2.683c0,1.653,0.626,2.914,2.836,2.914
			c0.55,0,1.419,0,2.052-0.234c-2.207,6.777-5.518,7.253-8.198,7.253c-5.599,0-8.045-3.709-8.045-8.673
			c0-1.26,0.156-2.602,0.473-3.942l8.676-40.998l11.666-1.577L652.988,248.619z"/>
		<polygon fill="#1D1D1B" points="505.553,202.493 488.996,250.748 488.282,202.264 488.283,202.263 22.896,202.263 
			280.567,208.944 477.801,208.945 477.801,261.234 489.154,261.234 511.072,202.493 		"/>
	</g>
</g>
</svg>
