<svg xmlns="http://www.w3.org/2000/svg" xmlns:xlink="http://www.w3.org/1999/xlink" version="1.1" id="Layer_1" x="0px" y="0px" width="800px" height="300px" viewBox="0 0 800 300" enable-background="new 0 0 800 300" xml:space="preserve">
<g>
	<g>
		<path fill="#1D1D1B" d="M118.814 68.788c-3.601 0-7.201-1.35-10.127-4.726c6.076-3.601 10.127-11.927 10.127-19.353 c0-7.877-4.501-15.078-16.428-15.078c-12.377 0-20.929 7.201-20.929 19.578c0 35.3 50.6 37.4 50.6 87.5 c0 31.729-23.404 52.208-59.635 52.208c-18.003 0-49.733-3.825-49.733-36.23c0-21.153 15.753-32.405 33.08-32.405 c10.127 0 16.4 3.4 18.2 11.477c-18.229 1.575-26.329 9.227-26.329 24.754c0 15.1 11.7 21.6 22.3 21.6 c17.778 0 24.754-15.527 24.754-32.18c0-42.307-48.607-51.533-48.607-85.063c0-23.629 26.779-41.856 53.559-41.856 c11.927 0 37.8 1.8 37.8 27.004C137.492 58.9 130.5 68.8 118.8 68.788z"/>
		<path fill="#1D1D1B" d="M210.181 91.292c0-5.4-3.375-7.651-8.326-7.651c-18.903 0-31.055 36.681-31.055 61 c0 13.3 2.7 24.1 16.4 24.079c15.978 0 28.805-9.452 39.156-21.153h7.651c-10.802 12.151-22.954 40.281-62.786 40.3 c-18.678 0-30.829-10.352-30.829-36.906c0-32.854 14.177-76.286 57.834-76.286c12.152 0 24.8 3.1 24.8 15.5 c0 2.476-0.225 4.501-1.125 7.426c-1.125-0.675-2.926-1.35-5.626-1.35c-2.025 0-4.275 0.45-7.201 1.4 C209.73 95.1 210.2 93.1 210.2 91.292z"/>
		<path fill="#1D1D1B" d="M309.195 106.145c1.351 1.4 3.4 2 6.5 2.025c10.576 0 15.303-7.651 23.629-11.027l0.9 4.7 c-6.977 8.776-18.679 16.202-31.73 19.803c-4.275 45.231-28.805 67.511-51.309 67.511c-24.079 0-34.431-10.127-34.431-36.906 c0-55.358 28.13-79.212 59.185-79.212C303.345 73.1 308.7 89.7 309.2 106.145z M291.867 123.9 c-6.525 0-9.451-4.726-9.451-10.126c0-6.526 3.826-13.502 9.901-15.753c-0.675-7.426-3.15-11.702-9.451-11.702 c-21.153 0-30.155 45.907-30.155 63.91c0 13.5 6.3 17.1 15.1 17.103C281.516 167.4 289.2 145.8 291.9 123.922z"/>
		<path fill="#1D1D1B" d="M425.317 75.314l-16.203 76.512c-0.45 2.476-0.899 4.951-0.899 6.977c0 5 2.2 8.6 11.3 8.6 c9.002 0 20.704-12.602 29.705-19.803h7.651c-10.352 10.352-35.78 40.281-53.334 40.281c-15.303 0-25.654-5.851-27.68-18.903 c-10.577 9.902-22.729 18.903-32.405 18.903c-17.328 0-28.13-7.651-28.13-24.529c0-3.375 0.45-7.201 1.351-11.477l16.202-76.512 h32.405l-16.202 76.512c-0.45 2.476-0.9 4.951-0.9 6.977c0 5 2.2 8.6 11.3 8.551c4.726 0 10.352-3.601 15.978-8.102 c0.225-2.25 0.675-4.726 1.351-7.426l16.202-76.512H425.317z"/>
		<path fill="#1D1D1B" d="M492.604 39.759c0 0-3.375 15.303-7.651 35.556h13.502l-1.8 9.002h-13.502 c-15.527 71.11-15.303 73.36-15.303 74.486c0 5.2 2.2 8.6 11.3 8.551c9.001 0 20.703-12.602 29.705-19.803h7.651 c-10.353 10.352-35.781 40.281-53.334 40.281c-17.328 0-27.904-7.651-27.904-24.529c0-11.927 11.701-59.634 15.527-78.986h-7.427 l1.801-9.002h7.426l6.751-31.055L492.604 39.759z"/>
		<path fill="#1D1D1B" d="M547.963 75.314l-16.202 76.512c-0.45 2.476-0.9 4.951-0.9 6.977c0 5 2.2 8.6 11.3 8.6 c9.001 0 20.703-12.602 29.704-19.803h7.651c-10.352 10.352-35.78 40.281-53.333 40.281c-17.328 0-28.13-7.651-28.13-24.529 c0-3.375 0.45-7.201 1.35-11.477l16.203-76.512H547.963z M537.611 27.606c9.901 0 18 8.1 18 18 c0 9.902-8.102 17.778-18.003 17.778s-17.778-7.876-17.778-17.778C519.833 35.7 527.7 27.6 537.6 27.606z"/>
		<path fill="#1D1D1B" d="M651.031 151.826c-0.675 2.476-1.125 4.951-1.125 7.201c0 5 2.5 8.3 11.3 8.3 c9.001 0 12.377-6.976 21.378-14.177h7.651c-10.352 10.352-27.454 34.655-45.007 34.655s-27.904-7.651-27.904-24.529 c0-3.601 0.449-7.201 1.35-11.477l8.552-40.506c0.45-2.025 0.675-4.051 0.675-5.851c0-8.102-4.275-13.277-10.352-13.277 c-5.4 0-9.451 1.575-14.178 4.726l-19.128 90.914H551.79l23.854-112.518h32.405l-2.701 12.2 c9.227-6.751 19.578-12.152 29.48-12.152c12.151 0 25.9 13.1 25.9 28.13c0 1.8 0 3.601-0.45 5.4L651.031 151.826z"/>
		<path fill="#1D1D1B" d="M668.809 160.603c0-31.055 11.927-85.063 55.584-85.063c8.102 0 14.6 4.7 18 10.577l2.25-10.802 h32.631l-27.454 130.521c-6.752 32.181-26.104 38.256-40.957 38.256c-13.728 0-26.555-9.676-26.555-24.304 c0-20.479 16.653-23.854 37.581-27.904l2.701-12.152c-6.752 5.401-15.528 9.452-25.88 9.5 C675.109 189.2 668.8 173.9 668.8 160.603z M703.689 224.063c4.726 0 10.352-4.275 13.277-17.553l1.575-7.426 c-14.178 2.476-23.854 5.4-23.854 17.553C694.688 219.8 698.7 224.1 703.7 224.063z M696.488 156.3 c0 10.8 6.5 14.2 16.4 14.177c4.275 0 8.776-3.15 13.052-7.426l13.952-65.26c-3.601-6.751-9.227-9.677-13.052-9.677 C705.04 88.1 696.5 137 696.5 156.327z"/>
	</g>
	<g>
		<path fill="#1D1D1B" d="M521.162 255.557c3.865 0 10.488-4.571 13.245-10.405h3.549c-4.494 8.122-12.063 16.083-22.234 16.1 c-7.571 0-11.666-5.754-11.666-12.536c0-10.014 4.254-27.595 18.606-27.595c6.466 0 10.1 2.7 10.1 8.2 c0 9.624-10.327 15.142-17.818 16.087c-0.154 1.259-0.235 2.444-0.235 3.389C514.697 254 518.1 255.6 521.2 255.557z M525.262 225.281c-4.413 0-8.042 8.91-9.698 16.321c7.254-0.077 12.381-6.308 12.458-11.905 C528.021 228 527.6 225.3 525.3 225.281z"/>
		<path fill="#1D1D1B" d="M570.358 221.813l-7.408 34.928c5.042-2.602 9.538-6.15 12.14-12.063l-0.315 6.2 c-1.027 5.125-6.546 8.042-12.772 10.329l-1.34 6.31c-2.369 11.271-8.99 13.4-14.191 13.4c-4.81 0-8.831-2.525-8.831-7.647 c0-6.465 5.756-9.066 12.852-11.667l0.788-3.551c-2.366 2.13-5.439 3.783-9.067 3.783c-7.566 0-9.773-6.382-9.773-11.034 c0-10.879 4.176-28.937 19.474-28.937c2.836 0 5.1 1.6 6.2 3.705l0.865-3.784H570.358z M544.659 274.8 c1.574 0 3.623-2.365 4.571-7.018l0.473-2.364c-4.494 1.736-7.729 3.705-7.729 6.8 C541.974 273.3 542.9 274.8 544.7 274.795z M542.134 249.327c0 3.8 2.3 5 5.8 5 c1.576 0 3.23-1.185 4.73-2.759l4.651-21.841c-1.261-2.364-3.154-3.393-4.496-3.393 C545.13 226.3 542.1 242.5 542.1 249.327z"/>
		<path fill="#1D1D1B" d="M604.734 248.619c-0.236 0.946-0.394 1.813-0.394 2.524c0 1.7 0.9 2.9 3.9 2.9 c3.151 0 7.254-4.414 10.408-6.937h2.68c-3.628 3.626-12.536 14.112-18.685 14.112c-6.152 0-9.777-2.679-9.777-8.594 c0-1.262 0.157-2.522 0.474-4.021l2.997-14.189c0.154-0.712 0.237-1.421 0.237-2.053c0-2.838-1.501-4.65-3.629-4.65 c-1.894 0-3.312 0.553-4.889 1.653l-6.777 31.854h-11.358l11.434-53.613l11.669-1.577l-4.259 19.9 c3.234-2.281 6.861-4.179 10.249-4.179c4.26 0 9.1 4.6 9.1 9.857c0 0.6 0 1.26-0.158 1.89L604.734 248.619z"/>
		<path fill="#1D1D1B" d="M629.336 255.557c3.859 0 10.483-4.571 13.242-10.405h3.551c-4.496 8.122-12.064 16.083-22.233 16.1 c-7.567 0-11.669-5.754-11.669-12.536c0-10.014 4.258-27.595 18.607-27.595c6.465 0 10.1 2.7 10.1 8.2 c0 9.624-10.329 15.142-17.82 16.087c-0.155 1.259-0.236 2.444-0.236 3.389C622.868 254 626.3 255.6 629.3 255.557z M633.433 225.281c-4.413 0-8.042 8.91-9.698 16.321c7.255-0.077 12.379-6.308 12.458-11.905 C636.192 228 635.8 225.3 633.4 225.281z"/>
		<path fill="#1D1D1B" d="M652.988 248.619c-0.238 0.946-0.395 1.813-0.395 2.683c0 1.7 0.6 2.9 2.8 2.9 c0.55 0 1.4 0 2.052-0.234c-2.207 6.777-5.518 7.253-8.198 7.253c-5.599 0-8.045-3.709-8.045-8.673 c0-1.26 0.156-2.602 0.473-3.942l8.676-40.998l11.666-1.577L652.988 248.619z"/>
		<polygon fill="#1D1D1B" points="505.6,202.5 489,250.7 488.3,202.3 488.3,202.3 22.9,202.3 280.6,208.9 477.8,208.9 477.8,261.2 489.2,261.2 511.1,202.5"/>
	</g>
</g>
</svg>
